NotoSerif-SemiBoldItalic.ufo
<glyph name="Eth" format="2">
  <advance width="768"/>
  <unicode hex="00D0"/>
  <anchor x="327" y="0" name="bottom"/>
  <anchor x="479" y="714" name="top"/>
  <anchor x="422" y="357" name="center"/>
  <anchor x="843" y="714" name="topright"/>
  <outline>
    <contour>
      <point x="59" y="343" type="line"/>
      <point x="425" y="343" type="line"/>
      <point x="438" y="404" type="line"/>
      <point x="72" y="404" type="line"/>
    </contour>
    <component base="D"/>
  </outline>
</glyph>
<glyph name="Lslash" format="2">
  <advance width="654"/>
  <unicode hex="0141"/>
  <anchor x="270" y="0" name="bottom"/>
  <anchor x="422" y="714" name="top"/>
  <anchor x="365" y="357" name="center"/>
  <anchor x="729" y="714" name="topright"/>
  <outline>
    <contour>
      <point x="35" y="229" type="line"/>
      <point x="127" y="276" type="line"/>
      <point x="304" y="366" type="line"/>
      <point x="469" y="451" type="line"/>
      <point x="485" y="525" type="line"/>
      <point x="319" y="438" type="line"/>
      <point x="143" y="348" type="line"/>
      <point x="51" y="301" type="line"/>
    </contour>
    <component base="L"/>
  </outline>
</glyph>
<glyph name="uni0191" format="2">
  <advance width="745"/>
  <unicode hex="0191"/>
  <anchor x="142" y="-10" name="bottom"/>
  <anchor x="530" y="714" name="top"/>
  <anchor x="831" y="714" name="topright"/>
  <outline>
    <contour>
      <point x="142" y="-10" type="curve" smooth="yes"/>
      <point x="281" y="-10"/>
      <point x="363" y="56"/>
      <point x="396" y="212" type="curve" smooth="yes"/>
      <point x="419" y="321" type="line"/>
      <point x="656" y="321" type="line"/>
      <point x="668" y="380" type="line"/>
      <point x="431" y="380" type="line"/>
      <point x="489" y="653" type="line"/>
      <point x="625" y="653" type="line" smooth="yes"/>
      <point x="681" y="653"/>
      <point x="700" y="624"/>
      <point x="700" y="586" type="curve" smooth="yes"/>
      <point x="700" y="581"/>
      <point x="697" y="550"/>
      <point x="695" y="528" type="curve"/>
      <point x="766" y="528" type="line"/>
      <point x="801" y="714" type="line"/>
      <point x="251" y="714" type="line"/>
      <point x="240" y="661" type="line"/>
      <point x="253" y="661" type="line" smooth="yes"/>
      <point x="295" y="661"/>
      <point x="325" y="656"/>
      <point x="325" y="627" type="curve" smooth="yes"/>
      <point x="325" y="622"/>
      <point x="323" y="611"/>
      <point x="319" y="593" type="curve" smooth="yes"/>
      <point x="227" y="156" type="line" smooth="yes"/>
      <point x="210" y="77"/>
      <point x="178" y="50"/>
      <point x="139" y="50" type="curve" smooth="yes"/>
      <point x="77" y="50"/>
      <point x="60" y="104"/>
      <point x="60" y="185" type="curve"/>
      <point x="7" y="185"/>
      <point x="-47" y="162"/>
      <point x="-47" y="100" type="curve" smooth="yes"/>
      <point x="-47" y="31"/>
      <point x="28" y="-10"/>
    </contour>
  </outline>
</glyph>
<glyph name="uni01B5" format="2">
  <advance width="666"/>
  <unicode hex="01B5"/>
  <anchor x="276" y="0" name="bottom"/>
  <anchor x="428" y="714" name="top"/>
  <anchor x="741" y="714" name="topright"/>
  <outline>
    <contour>
      <point x="121" y="342" type="line"/>
      <point x="245" y="342" type="line"/>
      <point x="431" y="342" type="line"/>
      <point x="590" y="342" type="line"/>
      <point x="603" y="403" type="line"/>
      <point x="481" y="403" type="line"/>
      <point x="295" y="403" type="line"/>
      <point x="134" y="403" type="line"/>
    </contour>
    <component base="Z"/>
  </outline>
</glyph>
<glyph name="uni01B6" format="2">
  <advance width="558"/>
  <unicode hex="01B6"/>
  <anchor x="222" y="0" name="bottom"/>
  <anchor x="336" y="536" name="top"/>
  <anchor x="595" y="536" name="topright"/>
  <outline>
    <contour>
      <point x="69" y="263" type="line"/>
      <point x="181" y="263" type="line"/>
      <point x="344" y="263" type="line"/>
      <point x="486" y="263" type="line"/>
      <point x="499" y="321" type="line"/>
      <point x="390" y="321" type="line"/>
      <point x="227" y="321" type="line"/>
      <point x="82" y="321" type="line"/>
    </contour>
    <component base="z"/>
  </outline>
</glyph>
<glyph name="uni01E4" format="2">
  <advance width="796"/>
  <unicode hex="01E4"/>
  <anchor x="341" y="0" name="bottom"/>
  <anchor x="493" y="714" name="top"/>
  <anchor x="871" y="714" name="topright"/>
  <outline>
    <contour>
      <point x="367" y="149" type="line"/>
      <point x="732" y="149" type="line"/>
      <point x="744" y="208" type="line"/>
      <point x="379" y="208" type="line"/>
    </contour>
    <component base="G"/>
  </outline>
</glyph>
<glyph name="uni01E5" format="2">
  <advance width="580"/>
  <unicode hex="01E5"/>
  <anchor x="182" y="-240" name="bottom"/>
  <anchor x="357" y="582" name="top"/>
  <anchor x="617" y="536" name="topright"/>
  <outline>
    <contour>
      <point x="183" y="-125" type="line"/>
      <point x="548" y="-125" type="line"/>
      <point x="559" y="-69" type="line"/>
      <point x="194" y="-69" type="line"/>
    </contour>
    <component base="g"/>
  </outline>
</glyph>
<glyph name="uni023A" format="2">
  <advance width="753"/>
  <unicode hex="023A"/>
  <anchor x="320" y="0" name="bottom"/>
  <anchor x="472" y="714" name="top"/>
  <anchor x="828" y="714" name="topright"/>
  <outline>
    <contour>
      <point x="111" y="-80" type="line"/>
      <point x="184" y="-80" type="line"/>
      <point x="656" y="760" type="line"/>
      <point x="586" y="760" type="line"/>
    </contour>
    <component base="A"/>
  </outline>
</glyph>
<glyph name="uni023D" format="2">
  <advance width="654"/>
  <unicode hex="023D"/>
  <anchor x="270" y="0" name="bottom"/>
  <anchor x="422" y="714" name="top"/>
  <anchor x="365" y="357" name="center"/>
  <anchor x="729" y="714" name="topright"/>
  <outline>
    <contour>
      <point x="50" y="342" type="line"/>
      <point x="141" y="342" type="line"/>
      <point x="299" y="342" type="line"/>
      <point x="455" y="342" type="line"/>
      <point x="468" y="403" type="line"/>
      <point x="312" y="403" type="line"/>
      <point x="154" y="403" type="line"/>
      <point x="63" y="403" type="line"/>
    </contour>
    <component base="L"/>
  </outline>
</glyph>
<glyph name="uni023E" format="2">
  <advance width="653"/>
  <unicode hex="023E"/>
  <anchor x="270" y="0" name="bottom"/>
  <anchor x="422" y="714" name="top"/>
  <anchor x="365" y="357" name="center"/>
  <anchor x="728" y="714" name="topright"/>
  <outline>
    <contour>
      <point x="-98" y="-73" type="line"/>
      <point x="-18" y="-73" type="line"/>
      <point x="729" y="760" type="line"/>
      <point x="650" y="760" type="line"/>
    </contour>
    <component base="T"/>
  </outline>
</glyph>
<glyph name="uni0243" format="2">
  <advance width="672"/>
  <unicode hex="0243"/>
  <anchor x="279" y="0" name="bottom"/>
  <anchor x="431" y="714" name="top"/>
  <anchor x="747" y="714" name="topright"/>
  <outline>
    <contour>
      <point x="8" y="173" type="line"/>
      <point x="370" y="173" type="line"/>
      <point x="382" y="232" type="line"/>
      <point x="20" y="232" type="line"/>
    </contour>
    <component base="B"/>
  </outline>
</glyph>
<glyph name="uni0247" format="2">
  <advance width="535"/>
  <unicode hex="0247"/>
  <anchor x="176" y="-167" name="bottom"/>
  <anchor x="363" y="714" name="top"/>
  <anchor x="572" y="536" name="topright"/>
  <outline>
    <contour>
      <point x="77" y="-167" type="line"/>
      <point x="139" y="-167" type="line"/>
      <point x="460" y="714" type="line"/>
      <point x="399" y="714" type="line"/>
    </contour>
    <component base="e"/>
  </outline>
</glyph>
<glyph name="uni024F" format="2">
  <advance width="586"/>
  <unicode hex="024F"/>
  <anchor x="55" y="-240" name="bottom"/>
  <anchor x="310" y="536" name="top"/>
  <anchor x="593" y="536" name="topright"/>
  <outline>
    <contour>
      <point x="-2" y="301" type="line"/>
      <point x="603" y="301" type="line"/>
      <point x="614" y="357" type="line"/>
      <point x="9" y="357" type="line"/>
    </contour>
    <component base="y"/>
  </outline>
</glyph>
<glyph name="uni02A1" format="2">
  <advance width="540"/>
  <unicode hex="02A1"/>
  <anchor x="183" y="0" name="bottom"/>
  <anchor x="336" y="766" name="top"/>
  <anchor x="649" y="760" name="topright"/>
  <outline>
    <contour>
      <point x="34" y="168" type="line"/>
      <point x="389" y="168" type="line"/>
      <point x="402" y="226" type="line"/>
      <point x="47" y="226" type="line"/>
    </contour>
    <component base="uni0294"/>
  </outline>
</glyph>
<glyph name="uni02A2" format="2">
  <advance width="540"/>
  <unicode hex="02A2"/>
  <anchor x="213" y="0" name="bottom"/>
  <anchor x="376" y="766" name="top"/>
  <outline>
    <contour>
      <point x="82" y="168" type="line"/>
      <point x="437" y="168" type="line"/>
      <point x="450" y="226" type="line"/>
      <point x="95" y="226" type="line"/>
    </contour>
    <component base="uni0295"/>
  </outline>
</glyph>
<glyph name="uni02F0" format="2">
  <advance width="337"/>
  <unicode hex="02F0"/>
  <outline>
    <contour>
      <point x="-68" y="-240" type="line"/>
      <point x="-17" y="-240" type="line"/>
      <point x="22" y="-202"/>
      <point x="56" y="-165"/>
      <point x="85" y="-121" type="curve"/>
      <point x="97" y="-165"/>
      <point x="115" y="-202"/>
      <point x="138" y="-240" type="curve"/>
      <point x="189" y="-240" type="line"/>
      <point x="191" y="-230" type="line"/>
      <point x="157" y="-164"/>
      <point x="143" y="-99"/>
      <point x="129" y="-28" type="curve"/>
      <point x="81" y="-28" type="line"/>
      <point x="38" y="-98"/>
      <point x="-5" y="-165"/>
      <point x="-66" y="-230" type="curve"/>
    </contour>
  </outline>
</glyph>
<glyph name="afii10193" format="2">
  <advance width="673"/>
  <unicode hex="045F"/>
  <anchor x="232" y="-228" name="bottom"/>
  <anchor x="394" y="536" name="top"/>
  <anchor x="710" y="536" name="topright"/>
  <outline>
    <contour>
      <point x="213" y="-228" type="curve" smooth="yes"/>
      <point x="298" y="-228"/>
      <point x="323" y="-145"/>
      <point x="355" y="39" type="curve"/>
      <point x="284" y="-15" type="line" smooth="yes"/>
      <point x="258" y="-101"/>
      <point x="214" y="-149"/>
      <point x="166" y="-149" type="curve" smooth="yes"/>
      <point x="139" y="-149"/>
      <point x="117" y="-142"/>
      <point x="99" y="-136" type="curve"/>
      <point x="80" y="-190" type="line"/>
      <point x="115" y="-211"/>
      <point x="151" y="-228"/>
    </contour>
    <component base="u"/>
  </outline>
</glyph>
<glyph name="uni0463" format="2">
  <advance width="595"/>
  <unicode hex="0463"/>
  <anchor x="241" y="0" name="bottom"/>
  <anchor x="403" y="760" name="top"/>
  <outline>
    <contour>
      <point x="300" y="-10" type="curve" smooth="yes"/>
      <point x="440" y="-10"/>
      <point x="555" y="51"/>
      <point x="555" y="168" type="curve"/>
      <point x="555" y="265"/>
      <point x="493" y="314"/>
      <point x="351" y="314" type="curve" smooth="yes"/>
      <point x="330" y="314"/>
      <point x="293" y="312"/>
      <point x="252" y="309" type="curve"/>
      <point x="284" y="461" type="line"/>
      <point x="440" y="461" type="line"/>
      <point x="451" y="514" type="line"/>
      <point x="296" y="514" type="line"/>
      <point x="348" y="760" type="line"/>
      <point x="109" y="760" type="line"/>
      <point x="100" y="707" type="line"/>
      <point x="122" y="707" type="line" smooth="yes"/>
      <point x="160" y="707"/>
      <point x="175" y="701"/>
      <point x="175" y="674" type="curve" smooth="yes"/>
      <point x="175" y="663"/>
      <point x="172" y="639"/>
      <point x="166" y="612" type="curve" smooth="yes"/>
      <point x="145" y="514" type="line"/>
      <point x="59" y="514" type="line"/>
      <point x="48" y="461" type="line"/>
      <point x="134" y="461" type="line"/>
      <point x="85" y="230" type="line"/>
      <point x="79" y="204"/>
      <point x="74" y="174"/>
      <point x="74" y="142" type="curve" smooth="yes"/>
      <point x="74" y="40"/>
      <point x="151" y="-10"/>
    </contour>
    <contour>
      <point x="306" y="58" type="curve" smooth="yes"/>
      <point x="248" y="58"/>
      <point x="225" y="89"/>
      <point x="225" y="143" type="curve" smooth="yes"/>
      <point x="225" y="171"/>
      <point x="233" y="217"/>
      <point x="239" y="248" type="curve"/>
      <point x="255" y="249"/>
      <point x="277" y="252"/>
      <point x="314" y="252" type="curve" smooth="yes"/>
      <point x="369" y="252"/>
      <point x="399" y="224"/>
      <point x="399" y="164" type="curve" smooth="yes"/>
      <point x="399" y="103"/>
      <point x="370" y="58"/>
    </contour>
  </outline>
</glyph>
<glyph name="uni048E" format="2">
  <advance width="663"/>
  <unicode hex="048E"/>
  <anchor x="275" y="0" name="bottom"/>
  <anchor x="427" y="714" name="top"/>
  <anchor x="738" y="714" name="topright"/>
  <outline>
    <contour>
      <point x="463" y="178" type="line"/>
      <point x="512" y="199" type="line"/>
      <point x="397" y="445" type="line"/>
      <point x="348" y="424" type="line"/>
    </contour>
    <component base="P"/>
  </outline>
</glyph>
<glyph name="uni04B0" format="2">
  <advance width="693"/>
  <unicode hex="04B0"/>
  <anchor x="290" y="0" name="bottom"/>
  <anchor x="442" y="714" name="top"/>
  <anchor x="768" y="714" name="topright"/>
  <outline>
    <contour>
      <point x="117" y="193" type="line"/>
      <point x="560" y="193" type="line"/>
      <point x="571" y="246" type="line"/>
      <point x="128" y="246" type="line"/>
    </contour>
    <component base="Y"/>
  </outline>
</glyph>
<glyph name="uni04B1" format="2">
  <advance width="586"/>
  <unicode hex="04B1"/>
  <anchor x="185" y="-240" name="bottom"/>
  <anchor x="350" y="536" name="top"/>
  <outline>
    <contour>
      <point x="22" y="-53" type="line"/>
      <point x="426" y="-53" type="line"/>
      <point x="437" y="0" type="line"/>
      <point x="33" y="0" type="line"/>
    </contour>
    <component base="uni04AF"/>
  </outline>
</glyph>
<glyph name="uni04B8" format="2">
  <advance width="755"/>
  <unicode hex="04B8"/>
  <anchor x="321" y="0" name="bottom"/>
  <anchor x="473" y="714" name="top"/>
  <outline>
    <contour>
      <point x="296" y="104" type="line"/>
      <point x="354" y="104" type="line"/>
      <point x="437" y="496" type="line"/>
      <point x="379" y="496" type="line"/>
    </contour>
    <component base="afii10041"/>
  </outline>
</glyph>
<glyph name="uni04BE" format="2">
  <advance width="821"/>
  <unicode hex="04BE"/>
  <anchor x="309" y="-210" name="bottom"/>
  <anchor x="506" y="714" name="top"/>
  <outline>
    <contour>
      <point x="392" y="-210" type="curve"/>
      <point x="458" y="-210" type="line"/>
      <point x="487" y="-75"/>
      <point x="514" y="-34"/>
      <point x="614" y="11" type="curve"/>
      <point x="313" y="29" type="line"/>
      <point x="384" y="-9"/>
      <point x="406" y="-48"/>
      <point x="406" y="-105" type="curve" smooth="yes"/>
      <point x="406" y="-137"/>
      <point x="399" y="-176"/>
    </contour>
    <component base="uni04BC"/>
  </outline>
</glyph>
<glyph name="uni04E8" format="2">
  <advance width="792"/>
  <unicode hex="04E8"/>
  <anchor x="339" y="0" name="bottom"/>
  <anchor x="491" y="714" name="top"/>
  <anchor x="434" y="357" name="center"/>
  <anchor x="867" y="714" name="topright"/>
  <outline>
    <contour>
      <point x="150" y="342" type="line"/>
      <point x="683" y="342" type="line"/>
      <point x="683" y="403" type="line"/>
      <point x="150" y="403" type="line"/>
    </contour>
    <component base="O"/>
  </outline>
</glyph>
<glyph name="uni04FE" format="2">
  <advance width="732"/>
  <unicode hex="04FE"/>
  <anchor x="309" y="0" name="bottom"/>
  <anchor x="461" y="714" name="top"/>
  <anchor x="807" y="714" name="topright"/>
  <outline>
    <contour>
      <point x="139" y="347" type="line"/>
      <point x="644" y="347" type="line"/>
      <point x="656" y="400" type="line"/>
      <point x="151" y="400" type="line"/>
    </contour>
    <component base="X"/>
  </outline>
</glyph>
<glyph name="uni04FF" format="2">
  <advance width="604"/>
  <unicode hex="04FF"/>
  <anchor x="245" y="0" name="bottom"/>
  <anchor x="359" y="536" name="top"/>
  <anchor x="641" y="536" name="topright"/>
  <outline>
    <contour>
      <point x="74" y="269" type="line"/>
      <point x="530" y="269" type="line"/>
      <point x="541" y="322" type="line"/>
      <point x="85" y="322" type="line"/>
    </contour>
    <component base="x"/>
  </outline>
</glyph>
<glyph name="uni1D09" format="2">
  <advance width="372"/>
  <unicode hex="1D09"/>
  <anchor x="86" y="-201" name="bottom"/>
  <anchor x="243" y="536" name="top"/>
  <outline>
    <contour>
      <point x="-10" y="0" type="line"/>
      <point x="279" y="0" type="line"/>
      <point x="288" y="53" type="line"/>
      <point x="267" y="53" type="line" smooth="yes"/>
      <point x="246" y="53"/>
      <point x="227" y="60"/>
      <point x="226" y="82" type="curve" smooth="yes"/>
      <point x="226" y="86"/>
      <point x="228" y="97"/>
      <point x="231" y="111" type="curve" smooth="yes"/>
      <point x="306" y="444" type="line" smooth="yes"/>
      <point x="313" y="477"/>
      <point x="340" y="483"/>
      <point x="367" y="483" type="curve" smooth="yes"/>
      <point x="388" y="483" type="line"/>
      <point x="399" y="536" type="line"/>
      <point x="110" y="536" type="line"/>
      <point x="99" y="483" type="line"/>
      <point x="123" y="483" type="line" smooth="yes"/>
      <point x="144" y="483"/>
      <point x="164" y="482"/>
      <point x="164" y="459" type="curve" smooth="yes"/>
      <point x="164" y="455"/>
      <point x="160" y="436"/>
      <point x="156" y="421" type="curve" smooth="yes"/>
      <point x="81" y="91" type="line" smooth="yes"/>
      <point x="73" y="57"/>
      <point x="49" y="53"/>
      <point x="22" y="53" type="curve" smooth="yes"/>
      <point x="2" y="53" type="line"/>
    </contour>
    <contour>
      <point x="108" y="-201" type="curve" smooth="yes"/>
      <point x="154" y="-201"/>
      <point x="201" y="-175"/>
      <point x="201" y="-121" type="curve" smooth="yes"/>
      <point x="201" y="-77"/>
      <point x="164" y="-59"/>
      <point x="122" y="-59" type="curve" smooth="yes"/>
      <point x="73" y="-59"/>
      <point x="30" y="-83"/>
      <point x="30" y="-139" type="curve" smooth="yes"/>
      <point x="30" y="-181"/>
      <point x="64" y="-201"/>
    </contour>
  </outline>
</glyph>
<glyph name="uni1D0C" format="2">
  <advance width="545"/>
  <unicode hex="1D0C"/>
  <anchor x="216" y="0" name="bottom"/>
  <anchor x="330" y="536" name="top"/>
  <outline>
    <contour>
      <point x="32" y="159" type="line"/>
      <point x="393" y="334" type="line"/>
      <point x="409" y="406" type="line"/>
      <point x="48" y="230" type="line"/>
    </contour>
    <component base="uni029F" xOffset="-8"/>
  </outline>
</glyph>
<glyph name="uni1D24" format="2">
  <advance width="516"/>
  <unicode hex="1D24"/>
  <anchor x="223" y="0" name="bottom"/>
  <anchor x="362" y="760" name="top"/>
  <outline>
    <contour>
      <point x="217" y="-11" type="curve" smooth="yes"/>
      <point x="359" y="-11"/>
      <point x="449" y="47"/>
      <point x="449" y="123" type="curve" smooth="yes"/>
      <point x="449" y="171"/>
      <point x="408" y="196"/>
      <point x="325" y="196" type="curve"/>
      <point x="317" y="106"/>
      <point x="287" y="49"/>
      <point x="229" y="49" type="curve" smooth="yes"/>
      <point x="186" y="49"/>
      <point x="156" y="87"/>
      <point x="156" y="149" type="curve" smooth="yes"/>
      <point x="157" y="228"/>
      <point x="205" y="277"/>
      <point x="332" y="319" type="curve"/>
      <point x="352" y="407" type="line"/>
      <point x="501" y="455"/>
      <point x="575" y="522"/>
      <point x="575" y="611" type="curve" smooth="yes"/>
      <point x="575" y="715"/>
      <point x="498" y="769"/>
      <point x="359" y="769" type="curve" smooth="yes"/>
      <point x="217" y="769"/>
      <point x="127" y="711"/>
      <point x="127" y="637" type="curve" smooth="yes"/>
      <point x="127" y="588"/>
      <point x="168" y="564"/>
      <point x="252" y="563" type="curve"/>
      <point x="259" y="653"/>
      <point x="290" y="710"/>
      <point x="348" y="710" type="curve" smooth="yes"/>
      <point x="390" y="710"/>
      <point x="420" y="672"/>
      <point x="420" y="610" type="curve" smooth="yes"/>
      <point x="420" y="531"/>
      <point x="372" y="482"/>
      <point x="244" y="440" type="curve"/>
      <point x="226" y="352" type="line"/>
      <point x="75" y="304"/>
      <point x="2" y="236"/>
      <point x="2" y="148" type="curve" smooth="yes"/>
      <point x="2" y="44"/>
      <point x="78" y="-11"/>
    </contour>
  </outline>
</glyph>
<glyph name="uni1D7A" format="2">
  <advance width="1073"/>
  <unicode hex="1D7A"/>
  <anchor x="152" y="0" name="bottom_1"/>
  <anchor x="688" y="0" name="bottom_2"/>
  <anchor x="206" y="268" name="center_1"/>
  <anchor x="802" y="268" name="center_2"/>
  <anchor x="292" y="659" name="top_1"/>
  <anchor x="850" y="760" name="top_2"/>
  <anchor x="374" y="980" name="topright_1"/>
  <anchor x="1158" y="760" name="topright_2"/>
  <outline>
    <contour>
      <point x="-11" y="-122" type="line"/>
      <point x="73" y="-122" type="line"/>
      <point x="929" y="760" type="line"/>
      <point x="848" y="760" type="line"/>
    </contour>
    <component base="t"/>
    <component base="h" xOffset="417"/>
  </outline>
</glyph>
<glyph name="uni1D7B" format="2">
  <advance width="372"/>
  <unicode hex="1D7B"/>
  <anchor x="129" y="0" name="bottom"/>
  <anchor x="243" y="536" name="top"/>
  <outline>
    <contour>
      <point x="19" y="259" type="line"/>
      <point x="357" y="259" type="line"/>
      <point x="370" y="317" type="line"/>
      <point x="32" y="317" type="line"/>
    </contour>
    <component base="uni026A"/>
  </outline>
</glyph>
<glyph name="uni1D7C" format="2">
  <advance width="377"/>
  <unicode hex="1D7C"/>
  <anchor x="162" y="0" name="bottom"/>
  <anchor x="226" y="536" name="top"/>
  <outline>
    <contour>
      <point x="-4" y="259" type="line"/>
      <point x="334" y="259" type="line"/>
      <point x="347" y="317" type="line"/>
      <point x="9" y="317" type="line"/>
    </contour>
    <component base="iota"/>
  </outline>
</glyph>
<glyph name="uni1D7D" format="2">
  <advance width="623"/>
  <unicode hex="1D7D"/>
  <anchor x="94" y="-240" name="bottom"/>
  <anchor x="369" y="536" name="top"/>
  <anchor x="660" y="536" name="topright"/>
  <outline>
    <contour>
      <point x="-7" y="259" type="line"/>
      <point x="655" y="259" type="line"/>
      <point x="668" y="317" type="line"/>
      <point x="6" y="317" type="line"/>
    </contour>
    <component base="p"/>
  </outline>
</glyph>
<glyph name="uni1D7F" format="2">
  <advance width="618"/>
  <unicode hex="1D7F"/>
  <anchor x="259" y="0" name="bottom"/>
  <anchor x="364" y="536" name="top"/>
  <outline>
    <contour>
      <point x="-8" y="261" type="line"/>
      <point x="623" y="261" type="line"/>
      <point x="636" y="319" type="line"/>
      <point x="5" y="319" type="line"/>
    </contour>
    <component base="uni028A"/>
  </outline>
</glyph>
<glyph name="uni1D82" format="2">
  <advance width="448"/>
  <unicode hex="1D82"/>
  <anchor x="-78" y="-240" name="bottom"/>
  <anchor x="409" y="770" name="top"/>
  <anchor x="581" y="770" name="topright"/>
  <outline>
    <contour>
      <point x="264" y="-197" type="curve" smooth="yes"/>
      <point x="338" y="-197"/>
      <point x="383" y="-158"/>
      <point x="404" y="-45" type="curve" smooth="yes"/>
      <point x="438" y="134" type="line"/>
      <point x="208" y="134" type="line"/>
      <point x="196" y="76" type="line"/>
      <point x="362" y="76" type="line"/>
      <point x="338" y="-39" type="line" smooth="yes"/>
      <point x="327" y="-91"/>
      <point x="305" y="-113"/>
      <point x="266" y="-113" type="curve" smooth="yes"/>
      <point x="244" y="-113"/>
      <point x="229" y="-105"/>
      <point x="215" y="-93" type="curve"/>
      <point x="198" y="-103"/>
      <point x="187" y="-121"/>
      <point x="187" y="-142" type="curve" smooth="yes"/>
      <point x="187" y="-179"/>
      <point x="220" y="-197"/>
    </contour>
    <component base="f"/>
  </outline>
</glyph>
<glyph name="uni1FCD" format="2">
  <advance width="400"/>
  <unicode hex="1FCD"/>
  <anchor x="253" y="536" name="_top"/>
  <anchor x="277" y="724" name="top"/>
  <outline>
    <contour>
      <point x="118" y="546" type="line"/>
      <point x="221" y="556"/>
      <point x="267" y="615"/>
      <point x="267" y="660" type="curve" smooth="yes"/>
      <point x="267" y="706"/>
      <point x="237" y="724"/>
      <point x="199" y="724" type="curve" smooth="yes"/>
      <point x="156" y="724"/>
      <point x="139" y="700"/>
      <point x="139" y="682" type="curve" smooth="yes"/>
      <point x="139" y="633"/>
      <point x="192" y="650"/>
      <point x="192" y="627" type="curve" smooth="yes"/>
      <point x="192" y="611"/>
      <point x="171" y="591"/>
      <point x="118" y="582" type="curve"/>
    </contour>
    <contour>
      <point x="379" y="557" type="curve"/>
      <point x="428" y="557" type="line"/>
      <point x="431" y="570" type="line"/>
      <point x="415" y="616"/>
      <point x="402" y="680"/>
      <point x="396" y="714" type="curve"/>
      <point x="294" y="714" type="line"/>
      <point x="293" y="704" type="line"/>
      <point x="311" y="664"/>
      <point x="348" y="598"/>
    </contour>
  </outline>
</glyph>
<glyph name="uni1FEF" format="2">
  <advance width="577"/>
  <unicode hex="1FEF"/>
  <anchor x="319" y="536" name="_top"/>
  <anchor x="358" y="796" name="top"/>
  <outline>
    <contour>
      <point x="374" y="626" type="curve"/>
      <point x="438" y="626" type="line"/>
      <point x="441" y="641" type="line"/>
      <point x="419" y="689"/>
      <point x="406" y="759"/>
      <point x="404" y="796" type="curve"/>
      <point x="274" y="796" type="line"/>
      <point x="271" y="784" type="line"/>
      <point x="290" y="735"/>
      <point x="322" y="680"/>
    </contour>
  </outline>
</glyph>
<glyph name="uni1FFD" format="2">
  <advance width="577"/>
  <unicode hex="1FFD"/>
  <anchor x="319" y="536" name="_top"/>
  <anchor x="359" y="796" name="top"/>
  <outline>
    <contour>
      <point x="252" y="626" type="line"/>
      <point x="322" y="626" type="line"/>
      <point x="367" y="668"/>
      <point x="429" y="734"/>
      <point x="458" y="784" type="curve"/>
      <point x="461" y="796" type="line"/>
      <point x="325" y="796" type="line"/>
      <point x="305" y="744"/>
      <point x="280" y="689"/>
      <point x="255" y="641" type="curve"/>
    </contour>
  </outline>
</glyph>
<glyph name="minussuperior" format="2">
  <advance width="400"/>
  <unicode hex="207B"/>
  <outline>
    <contour>
      <point x="28" y="450" type="line"/>
      <point x="373" y="450" type="line"/>
      <point x="373" y="513" type="line"/>
      <point x="28" y="513" type="line"/>
    </contour>
  </outline>
</glyph>
<glyph name="equalsuperior" format="2">
  <advance width="400"/>
  <unicode hex="207C"/>
  <outline>
    <contour>
      <point x="28" y="525" type="line"/>
      <point x="373" y="525" type="line"/>
      <point x="373" y="588" type="line"/>
      <point x="28" y="588" type="line"/>
    </contour>
    <contour>
      <point x="28" y="374" type="line"/>
      <point x="373" y="374" type="line"/>
      <point x="373" y="437" type="line"/>
      <point x="28" y="437" type="line"/>
    </contour>
  </outline>
</glyph>
<glyph name="parenleftsuperior" format="2">
  <advance width="250"/>
  <unicode hex="207D"/>
  <outline>
    <contour>
      <point x="196" y="197" type="curve"/>
      <point x="206" y="241" type="line"/>
      <point x="154" y="281"/>
      <point x="135" y="352"/>
      <point x="135" y="440" type="curve" smooth="yes"/>
      <point x="135" y="552"/>
      <point x="187" y="678"/>
      <point x="313" y="747" type="curve"/>
      <point x="322" y="789" type="line"/>
      <point x="139" y="751"/>
      <point x="33" y="608"/>
      <point x="33" y="438" type="curve" smooth="yes"/>
      <point x="33" y="315"/>
      <point x="88" y="237"/>
    </contour>
  </outline>
</glyph>
<glyph name="parenrightsuperior" format="2">
  <advance width="250"/>
  <unicode hex="207E"/>
  <outline>
    <contour>
      <point x="-19" y="195" type="line"/>
      <point x="164" y="233"/>
      <point x="270" y="376"/>
      <point x="270" y="559" type="curve" smooth="yes"/>
      <point x="270" y="668"/>
      <point x="215" y="747"/>
      <point x="106" y="787" type="curve"/>
      <point x="97" y="743" type="line"/>
      <point x="148" y="703"/>
      <point x="166" y="634"/>
      <point x="166" y="569" type="curve" smooth="yes"/>
      <point x="166" y="435"/>
      <point x="117" y="306"/>
      <point x="-10" y="237" type="curve"/>
    </contour>
  </outline>
</glyph>
<glyph name="parenleftinferior" format="2">
  <advance width="250"/>
  <unicode hex="208D"/>
  <outline>
    <contour>
      <point x="134" y="-289" type="curve"/>
      <point x="144" y="-245" type="line"/>
      <point x="92" y="-205"/>
      <point x="73" y="-134"/>
      <point x="73" y="-46" type="curve" smooth="yes"/>
      <point x="73" y="66"/>
      <point x="125" y="192"/>
      <point x="251" y="261" type="curve" smooth="yes"/>
      <point x="260" y="303" type="line"/>
      <point x="77" y="265"/>
      <point x="-29" y="122"/>
      <point x="-29" y="-46" type="curve" smooth="yes"/>
      <point x="-29" y="-187"/>
      <point x="26" y="-249"/>
    </contour>
  </outline>
</glyph>
<glyph name="parenrightinferior" format="2">
  <advance width="250"/>
  <unicode hex="208E"/>
  <outline>
    <contour>
      <point x="-99" y="-289" type="line"/>
      <point x="84" y="-251"/>
      <point x="190" y="-110"/>
      <point x="190" y="73" type="curve" smooth="yes"/>
      <point x="190" y="182"/>
      <point x="135" y="263"/>
      <point x="26" y="303" type="curve"/>
      <point x="17" y="259" type="line"/>
      <point x="68" y="219"/>
      <point x="86" y="150"/>
      <point x="86" y="94" type="curve" smooth="yes"/>
      <point x="86" y="-49"/>
      <point x="37" y="-178"/>
      <point x="-90" y="-247" type="curve" smooth="yes"/>
    </contour>
  </outline>
</glyph>
<glyph name="uni20A9" format="2">
  <advance width="1067"/>
  <unicode hex="20A9"/>
  <anchor x="477" y="0" name="bottom"/>
  <anchor x="629" y="714" name="top"/>
  <anchor x="1142" y="714" name="topright"/>
  <outline>
    <contour>
      <point x="57" y="424" type="line"/>
      <point x="1078" y="424" type="line"/>
      <point x="1090" y="483" type="line"/>
      <point x="69" y="483" type="line"/>
    </contour>
    <contour>
      <point x="32" y="306" type="line"/>
      <point x="1053" y="307" type="line"/>
      <point x="1065" y="366" type="line"/>
      <point x="44" y="366" type="line"/>
    </contour>
    <component base="W"/>
  </outline>
</glyph>
<glyph name="uni20B4" format="2">
  <advance width="615"/>
  <unicode hex="20B4"/>
  <anchor x="252" y="0" name="bottom"/>
  <anchor x="404" y="714" name="top"/>
  <outline>
    <contour>
      <point x="-3" y="310" type="line"/>
      <point x="628" y="310" type="line"/>
      <point x="640" y="369" type="line"/>
      <point x="9" y="369" type="line"/>
    </contour>
    <contour>
      <point x="22" y="427" type="line"/>
      <point x="653" y="427" type="line"/>
      <point x="665" y="486" type="line"/>
      <point x="34" y="486" type="line"/>
    </contour>
    <component base="uni01A7" xOffset="16"/>
  </outline>
</glyph>
<glyph name="planckconstantovertwopi" format="2">
  <advance width="656"/>
  <unicode hex="210F"/>
  <anchor x="271" y="0" name="bottom"/>
  <anchor x="385" y="268" name="center"/>
  <anchor x="433" y="760" name="top"/>
  <anchor x="741" y="760" name="topright"/>
  <outline>
    <contour>
      <point x="54" y="475" type="line"/>
      <point x="420" y="627" type="line"/>
      <point x="432" y="699" type="line"/>
      <point x="66" y="545" type="line"/>
    </contour>
    <component base="h"/>
  </outline>
</glyph>
<glyph name="turnedSansSerifL" format="2">
  <advance width="632"/>
  <unicode hex="2142"/>
  <outline>
    <contour>
      <point x="207" y="0" type="line"/>
      <point x="552" y="0" type="line"/>
      <point x="563" y="53" type="line"/>
      <point x="550" y="53" type="line" smooth="yes"/>
      <point x="485" y="53"/>
      <point x="472" y="67"/>
      <point x="484" y="121" type="curve" smooth="yes"/>
      <point x="586" y="601" type="line" smooth="yes"/>
      <point x="597" y="653"/>
      <point x="636" y="661"/>
      <point x="678" y="661" type="curve" smooth="yes"/>
      <point x="691" y="661" type="line"/>
      <point x="702" y="714" type="line"/>
      <point x="116" y="714" type="line"/>
      <point x="61" y="491" type="line"/>
      <point x="125" y="491" type="line"/>
      <point x="143" y="544" type="line" smooth="yes"/>
      <point x="168" y="617"/>
      <point x="199" y="653"/>
      <point x="272" y="653" type="curve" smooth="yes"/>
      <point x="439" y="653" type="line"/>
      <point x="326" y="114" type="line" smooth="yes"/>
      <point x="315" y="61"/>
      <point x="275" y="53"/>
      <point x="231" y="53" type="curve" smooth="yes"/>
      <point x="218" y="53" type="line"/>
    </contour>
  </outline>
</glyph>
<glyph name="reversedSansSerifL" format="2">
  <advance width="648"/>
  <unicode hex="2143"/>
  <outline>
    <contour>
      <point x="-18" y="0" type="line"/>
      <point x="568" y="0" type="line"/>
      <point x="579" y="53" type="line"/>
      <point x="537" y="53" type="line" smooth="yes"/>
      <point x="494" y="53"/>
      <point x="492" y="87"/>
      <point x="500" y="118" type="curve" smooth="yes"/>
      <point x="601" y="596" type="line" smooth="yes"/>
      <point x="613" y="653"/>
      <point x="637" y="661"/>
      <point x="666" y="661" type="curve" smooth="yes"/>
      <point x="708" y="661" type="line"/>
      <point x="719" y="714" type="line"/>
      <point x="374" y="714" type="line"/>
      <point x="363" y="661" type="line"/>
      <point x="405" y="661" type="line" smooth="yes"/>
      <point x="446" y="661"/>
      <point x="449" y="630"/>
      <point x="443" y="600" type="curve" smooth="yes"/>
      <point x="329" y="61" type="line"/>
      <point x="143" y="61" type="line" smooth="yes"/>
      <point x="97" y="61"/>
      <point x="78" y="92"/>
      <point x="78" y="148" type="curve" smooth="yes"/>
      <point x="78" y="223" type="line"/>
      <point x="22" y="223" type="line"/>
    </contour>
  </outline>
</glyph>
<glyph name="uni2C61" format="2">
  <advance width="354"/>
  <unicode hex="2C61"/>
  <anchor x="120" y="0" name="bottom"/>
  <anchor x="282" y="760" name="top"/>
  <anchor x="234" y="268" name="center"/>
  <anchor x="439" y="760" name="topright"/>
  <outline>
    <contour>
      <point x="1" y="294" type="line"/>
      <point x="339" y="294" type="line"/>
      <point x="351" y="353" type="line"/>
      <point x="239" y="353" type="line"/>
      <point x="251" y="411" type="line"/>
      <point x="364" y="411" type="line"/>
      <point x="376" y="470" type="line"/>
      <point x="38" y="470" type="line"/>
      <point x="26" y="411" type="line"/>
      <point x="118" y="411" type="line"/>
      <point x="106" y="353" type="line"/>
      <point x="13" y="353" type="line"/>
    </contour>
    <component base="l"/>
  </outline>
</glyph>
<glyph name="uni2C65" format="2">
  <advance width="665"/>
  <unicode hex="2C65"/>
  <anchor x="232" y="-206" name="bottom"/>
  <anchor x="428" y="714" name="top"/>
  <anchor x="702" y="536" name="topright"/>
  <outline>
    <contour>
      <point x="95" y="-206" type="line"/>
      <point x="167" y="-206" type="line"/>
      <point x="493" y="714" type="line"/>
      <point x="421" y="714" type="line"/>
    </contour>
    <component base="a"/>
  </outline>
</glyph>
<glyph name="uni2C66" format="2">
  <advance width="417"/>
  <unicode hex="2C66"/>
  <anchor x="108" y="-206" name="bottom"/>
  <anchor x="304" y="714" name="top"/>
  <anchor x="266" y="268" name="center"/>
  <anchor x="454" y="536" name="topright"/>
  <outline>
    <contour>
      <point x="89" y="-206" type="line"/>
      <point x="161" y="-206" type="line"/>
      <point x="493" y="714" type="line"/>
      <point x="421" y="714" type="line"/>
    </contour>
    <component base="t"/>
  </outline>
</glyph>
<glyph name="uni2DF5" format="2">
  <unicode hex="2DF5"/>
  <anchor x="57" y="536" name="_top"/>
  <anchor x="74" y="619" name="bottom"/>
  <anchor x="119" y="835" name="top"/>
  <outline>
    <contour>
      <point x="318" y="834" type="line"/>
      <point x="73" y="834" type="line" smooth="yes"/>
      <point x="-54" y="834"/>
      <point x="-105" y="758"/>
      <point x="-105" y="699" type="curve" smooth="yes"/>
      <point x="-105" y="643"/>
      <point x="-60" y="616"/>
      <point x="-6" y="616" type="curve" smooth="yes"/>
      <point x="56" y="616"/>
      <point x="83" y="641"/>
      <point x="83" y="662" type="curve" smooth="yes"/>
      <point x="83" y="670"/>
      <point x="80" y="676"/>
      <point x="76" y="679" type="curve"/>
      <point x="64" y="663"/>
      <point x="45" y="646"/>
      <point x="13" y="646" type="curve" smooth="yes"/>
      <point x="-19" y="646"/>
      <point x="-36" y="666"/>
      <point x="-36" y="698" type="curve" smooth="yes"/>
      <point x="-36" y="739"/>
      <point x="-12" y="812"/>
      <point x="67" y="812" type="curve" smooth="yes"/>
      <point x="165" y="812" type="line"/>
      <point x="134" y="668" type="line" smooth="yes"/>
      <point x="130" y="647"/>
      <point x="113" y="641"/>
      <point x="95" y="641" type="curve" smooth="yes"/>
      <point x="90" y="641" type="line"/>
      <point x="86" y="620" type="line"/>
      <point x="227" y="620" type="line"/>
      <point x="231" y="641" type="line"/>
      <point x="226" y="641" type="line" smooth="yes"/>
      <point x="210" y="641"/>
      <point x="198" y="647"/>
      <point x="202" y="668" type="curve" smooth="yes"/>
      <point x="233" y="812" type="line"/>
      <point x="259" y="812" type="line" smooth="yes"/>
      <point x="275" y="812"/>
      <point x="279" y="804"/>
      <point x="277" y="779" type="curve" smooth="yes"/>
      <point x="276" y="766" type="line"/>
      <point x="307" y="766" type="line"/>
    </contour>
  </outline>
</glyph>
<glyph name="uni2E44" format="2">
  <advance width="392"/>
  <unicode hex="2E44"/>
  <outline>
    <contour>
      <point x="143" y="527" type="line"/>
      <point x="433" y="649" type="line"/>
      <point x="340" y="771" type="line"/>
      <point x="106" y="580" type="line"/>
    </contour>
    <contour>
      <point x="18" y="-63" type="line"/>
      <point x="308" y="59" type="line"/>
      <point x="215" y="181" type="line"/>
      <point x="-19" y="-10" type="line"/>
    </contour>
  </outline>
</glyph>
<glyph name="uniA643" format="2">
  <advance width="558"/>
  <unicode hex="A643"/>
  <outline>
    <contour>
      <point x="68" y="244" type="line"/>
      <point x="463" y="244" type="line"/>
      <point x="476" y="304" type="line"/>
      <point x="81" y="304" type="line"/>
    </contour>
    <component base="uniA641"/>
  </outline>
</glyph>
<glyph name="uniA740" format="2">
  <advance width="741"/>
  <unicode hex="A740"/>
  <anchor x="314" y="0" name="bottom"/>
  <anchor x="466" y="714" name="top"/>
  <anchor x="816" y="714" name="topright"/>
  <outline>
    <contour>
      <point x="94" y="535" type="line"/>
      <point x="439" y="535" type="line"/>
      <point x="452" y="592" type="line"/>
      <point x="107" y="592" type="line"/>
    </contour>
    <component base="K"/>
  </outline>
</glyph>
<glyph name="uniA742" format="2">
  <advance width="741"/>
  <unicode hex="A742"/>
  <anchor x="314" y="0" name="bottom"/>
  <anchor x="466" y="714" name="top"/>
  <anchor x="816" y="714" name="topright"/>
  <outline>
    <contour>
      <point x="338" y="108" type="line"/>
      <point x="641" y="299" type="line"/>
      <point x="613" y="350" type="line"/>
      <point x="312" y="159" type="line"/>
    </contour>
    <component base="K"/>
  </outline>
</glyph>
<glyph name="uniA748" format="2">
  <advance width="654"/>
  <unicode hex="A748"/>
  <anchor x="270" y="0" name="bottom"/>
  <anchor x="365" y="357" name="center"/>
  <anchor x="422" y="714" name="top"/>
  <anchor x="729" y="714" name="topright"/>
  <outline>
    <contour>
      <point x="94" y="535" type="line"/>
      <point x="439" y="535" type="line"/>
      <point x="452" y="592" type="line"/>
      <point x="107" y="592" type="line"/>
    </contour>
    <component base="L"/>
  </outline>
</glyph>
<glyph name="uniA749" format="2">
  <advance width="354"/>
  <unicode hex="A749"/>
  <anchor x="120" y="0" name="bottom"/>
  <anchor x="234" y="268" name="center"/>
  <anchor x="282" y="760" name="top"/>
  <anchor x="439" y="760" name="topright"/>
  <outline>
    <contour>
      <point x="65" y="589" type="line"/>
      <point x="398" y="589" type="line"/>
      <point x="410" y="642" type="line"/>
      <point x="77" y="642" type="line"/>
    </contour>
    <component base="l"/>
  </outline>
</glyph>
<glyph name="uniA74A" format="2">
  <advance width="792"/>
  <unicode hex="A74A"/>
  <anchor x="339" y="0" name="bottom"/>
  <anchor x="434" y="357" name="center"/>
  <anchor x="491" y="714" name="top"/>
  <anchor x="867" y="714" name="topright"/>
  <outline>
    <contour>
      <point x="7" y="342" type="line"/>
      <point x="810" y="342" type="line"/>
      <point x="823" y="403" type="line"/>
      <point x="19" y="403" type="line"/>
    </contour>
    <component base="O"/>
  </outline>
</glyph>
<glyph name="uniA74B" format="2">
  <advance width="618"/>
  <unicode hex="A74B"/>
  <anchor x="252" y="0" name="bottom"/>
  <anchor x="366" y="268" name="center"/>
  <anchor x="366" y="536" name="top"/>
  <anchor x="655" y="536" name="topright"/>
  <outline>
    <contour>
      <point x="-27" y="236" type="line"/>
      <point x="638" y="236" type="line"/>
      <point x="650" y="294" type="line"/>
      <point x="-16" y="294" type="line"/>
    </contour>
    <component base="o"/>
  </outline>
</glyph>
<glyph name="uniA756" format="2">
  <advance width="787"/>
  <unicode hex="A756"/>
  <anchor x="286" y="-240" name="bottom"/>
  <anchor x="489" y="714" name="top"/>
  <anchor x="862" y="714" name="topright"/>
  <outline>
    <contour>
      <point x="224" y="-213" type="line"/>
      <point x="574" y="-82" type="line"/>
      <point x="559" y="-33" type="line"/>
      <point x="208" y="-163" type="line"/>
    </contour>
    <component base="Q"/>
  </outline>
</glyph>
<glyph name="uniA757" format="2">
  <advance width="631"/>
  <unicode hex="A757"/>
  <anchor x="208" y="-240" name="bottom"/>
  <anchor x="373" y="536" name="top"/>
  <anchor x="668" y="536" name="topright"/>
  <outline>
    <contour>
      <point x="198" y="-115" type="line"/>
      <point x="566" y="-115" type="line"/>
      <point x="579" y="-58" type="line"/>
      <point x="211" y="-58" type="line"/>
    </contour>
    <component base="q"/>
  </outline>
</glyph>
<glyph name="uniA75F" format="2">
  <advance width="586"/>
  <unicode hex="A75F"/>
  <anchor x="236" y="0" name="bottom"/>
  <anchor x="350" y="536" name="top"/>
  <anchor x="623" y="536" name="topright"/>
  <outline>
    <contour>
      <point x="-4" y="-50" type="line"/>
      <point x="56" y="-50" type="line"/>
      <point x="414" y="596" type="line"/>
      <point x="354" y="596" type="line"/>
    </contour>
    <component base="v"/>
  </outline>
</glyph>
<glyph name="uniA764" format="2">
  <advance width="638"/>
  <unicode hex="A764"/>
  <outline>
    <contour>
      <point x="-23" y="0" type="line"/>
      <point x="321" y="0" type="line"/>
      <point x="332" y="53" type="line"/>
      <point x="319" y="53" type="line" smooth="yes"/>
      <point x="277" y="53"/>
      <point x="246" y="58"/>
      <point x="246" y="87" type="curve" smooth="yes"/>
      <point x="246" y="92"/>
      <point x="249" y="103"/>
      <point x="250" y="110" type="curve" smooth="yes"/>
      <point x="267" y="187" type="line"/>
      <point x="342" y="187" type="line" smooth="yes"/>
      <point x="553" y="187"/>
      <point x="638" y="248"/>
      <point x="638" y="371" type="curve" smooth="yes"/>
      <point x="638" y="466"/>
      <point x="572" y="527"/>
      <point x="368" y="527" type="curve" smooth="yes"/>
      <point x="335" y="527" type="line"/>
      <point x="344" y="564" type="line"/>
      <point x="441" y="564" type="line"/>
      <point x="454" y="621" type="line"/>
      <point x="359" y="621" type="line"/>
      <point x="374" y="661"/>
      <point x="408" y="661"/>
      <point x="448" y="661" type="curve" smooth="yes"/>
      <point x="461" y="661" type="line"/>
      <point x="472" y="714" type="line"/>
      <point x="127" y="714" type="line"/>
      <point x="116" y="661" type="line"/>
      <point x="129" y="661" type="line" smooth="yes"/>
      <point x="152" y="661"/>
      <point x="200" y="660"/>
      <point x="200" y="621" type="curve"/>
      <point x="109" y="621" type="line"/>
      <point x="96" y="564" type="line"/>
      <point x="188" y="564" type="line"/>
      <point x="93" y="113" type="line" smooth="yes"/>
      <point x="82" y="61"/>
      <point x="43" y="53"/>
      <point x="1" y="53" type="curve" smooth="yes"/>
      <point x="-12" y="53" type="line"/>
    </contour>
    <contour>
      <point x="279" y="245" type="line"/>
      <point x="323" y="468" type="line"/>
      <point x="345" y="468" type="line" smooth="yes"/>
      <point x="412" y="468"/>
      <point x="475" y="455"/>
      <point x="475" y="369" type="curve" smooth="yes"/>
      <point x="475" y="298"/>
      <point x="441" y="245"/>
      <point x="320" y="245" type="curve" smooth="yes"/>
    </contour>
  </outline>
</glyph>
<glyph name="uniA765" format="2">
  <advance width="623"/>
  <unicode hex="A765"/>
  <anchor x="204" y="-240" name="bottom"/>
  <anchor x="417" y="760" name="top"/>
  <outline>
    <contour>
      <point x="66" y="579" type="line"/>
      <point x="404" y="579" type="line"/>
      <point x="417" y="636" type="line"/>
      <point x="79" y="636" type="line"/>
    </contour>
    <component base="thorn"/>
  </outline>
</glyph>
<glyph name="uniA792" format="2">
  <advance width="668"/>
  <unicode hex="A792"/>
  <anchor x="347" y="0" name="bottom"/>
  <anchor x="499" y="714" name="top"/>
  <anchor x="743" y="714" name="topright"/>
  <outline>
    <contour>
      <point x="-21" y="342" type="line"/>
      <point x="384" y="342" type="line"/>
      <point x="397" y="403" type="line"/>
      <point x="-8" y="403" type="line"/>
    </contour>
    <component base="C"/>
  </outline>
</glyph>
<glyph name="uniA799" format="2">
  <advance width="404"/>
  <unicode hex="A799"/>
  <anchor x="-78" y="-240" name="bottom"/>
  <anchor x="409" y="770" name="top"/>
  <anchor x="581" y="770" name="topright"/>
  <outline>
    <contour>
      <point x="12" y="238" type="line"/>
      <point x="382" y="238" type="line"/>
      <point x="397" y="306" type="line"/>
      <point x="27" y="306" type="line"/>
    </contour>
    <component base="f"/>
  </outline>
</glyph>
<glyph name="uniA7A0" format="2">
  <advance width="796"/>
  <unicode hex="A7A0"/>
  <anchor x="341" y="0" name="bottom"/>
  <anchor x="505" y="714" name="top"/>
  <anchor x="871" y="714" name="topright"/>
  <outline>
    <contour>
      <point x="-14" y="222" type="line"/>
      <point x="761" y="387" type="line"/>
      <point x="773" y="445" type="line"/>
      <point x="-2" y="280" type="line"/>
    </contour>
    <component base="G"/>
  </outline>
</glyph>
<glyph name="uniA7A2" format="2">
  <advance width="741"/>
  <unicode hex="A7A2"/>
  <anchor x="314" y="0" name="bottom"/>
  <anchor x="466" y="714" name="top"/>
  <anchor x="816" y="714" name="topright"/>
  <outline>
    <contour>
      <point x="-9" y="115" type="line"/>
      <point x="700" y="251" type="line"/>
      <point x="712" y="309" type="line"/>
      <point x="3" y="173" type="line"/>
    </contour>
    <component base="K"/>
  </outline>
</glyph>
<glyph name="uniA7A5" format="2">
  <advance width="672"/>
  <unicode hex="A7A5"/>
  <anchor x="279" y="0" name="bottom"/>
  <anchor x="393" y="536" name="top"/>
  <anchor x="709" y="536" name="topright"/>
  <outline>
    <contour>
      <point x="0" y="148" type="line"/>
      <point x="667" y="268" type="line"/>
      <point x="679" y="326" type="line"/>
      <point x="12" y="206" type="line"/>
    </contour>
    <component base="n"/>
  </outline>
</glyph>
<glyph name="uniA7A6" format="2">
  <advance width="707"/>
  <unicode hex="A7A6"/>
  <anchor x="297" y="0" name="bottom"/>
  <anchor x="449" y="714" name="top"/>
  <anchor x="782" y="714" name="topright"/>
  <outline>
    <contour>
      <point x="54" y="402" type="line"/>
      <point x="766" y="542" type="line"/>
      <point x="778" y="600" type="line"/>
      <point x="66" y="460" type="line"/>
    </contour>
    <component base="R"/>
  </outline>
</glyph>
<glyph name="uniA7A7" format="2">
  <advance width="551"/>
  <unicode hex="A7A7"/>
  <anchor x="106" y="0" name="bottom"/>
  <anchor x="333" y="536" name="top"/>
  <anchor x="588" y="536" name="topright"/>
  <outline>
    <contour>
      <point x="-4" y="167" type="line"/>
      <point x="386" y="237" type="line"/>
      <point x="398" y="295" type="line"/>
      <point x="8" y="225" type="line"/>
    </contour>
    <component base="r"/>
  </outline>
</glyph>
<glyph name="uniA7A8" format="2">
  <advance width="586"/>
  <unicode hex="A7A8"/>
  <anchor x="236" y="0" name="bottom"/>
  <anchor x="388" y="714" name="top"/>
  <anchor x="661" y="714" name="topright"/>
  <outline>
    <contour>
      <point x="34" y="297" type="line"/>
      <point x="571" y="409" type="line"/>
      <point x="583" y="467" type="line"/>
      <point x="46" y="355" type="line"/>
    </contour>
    <component base="S"/>
  </outline>
</glyph>
<glyph name="uniA7A9" format="2">
  <advance width="514"/>
  <unicode hex="A7A9"/>
  <anchor x="200" y="0" name="bottom"/>
  <anchor x="314" y="536" name="top"/>
  <anchor x="551" y="536" name="topright"/>
  <outline>
    <contour>
      <point x="38" y="209" type="line"/>
      <point x="464" y="297" type="line"/>
      <point x="476" y="355" type="line"/>
      <point x="50" y="267" type="line"/>
    </contour>
    <component base="s"/>
  </outline>
</glyph>
<glyph name="uniA7AE" format="2">
  <advance width="567"/>
  <unicode hex="A7AE"/>
  <outline>
    <contour>
      <point x="-10" y="0" type="line"/>
      <point x="484" y="0" type="line"/>
      <point x="526" y="171" type="line"/>
      <point x="457" y="171" type="line"/>
      <point x="446" y="138" type="line" smooth="yes"/>
      <point x="425" y="75"/>
      <point x="408" y="57"/>
      <point x="372" y="57" type="curve" smooth="yes"/>
      <point x="325" y="57" type="line"/>
      <point x="414" y="479" type="line"/>
      <point x="461" y="479" type="line" smooth="yes"/>
      <point x="491" y="479"/>
      <point x="503" y="467"/>
      <point x="503" y="428" type="curve" smooth="yes"/>
      <point x="503" y="420"/>
      <point x="502" y="393"/>
      <point x="498" y="365" type="curve"/>
      <point x="567" y="365" type="line"/>
      <point x="597" y="536" type="line"/>
      <point x="102" y="536" type="line"/>
      <point x="60" y="365" type="line"/>
      <point x="129" y="365" type="line"/>
      <point x="140" y="398" type="line" smooth="yes"/>
      <point x="161" y="461"/>
      <point x="178" y="479"/>
      <point x="214" y="479" type="curve" smooth="yes"/>
      <point x="262" y="479" type="line"/>
      <point x="173" y="57" type="line"/>
      <point x="125" y="57" type="line" smooth="yes"/>
      <point x="95" y="57"/>
      <point x="83" y="69"/>
      <point x="83" y="107" type="curve" smooth="yes"/>
      <point x="83" y="116"/>
      <point x="85" y="139"/>
      <point x="88" y="171" type="curve"/>
      <point x="20" y="171" type="line"/>
    </contour>
  </outline>
</glyph>
<glyph name="uniA7AF" format="2">
  <advance width="682"/>
  <unicode hex="A7AF"/>
  <anchor x="280" y="0" name="bottom"/>
  <anchor x="341" y="286" name="center"/>
  <anchor x="402" y="571" name="top"/>
  <anchor x="723" y="571" name="topright"/>
  <outline>
    <contour>
      <point x="358" y="9" type="curve"/>
      <point x="198" y="13" type="line"/>
      <point x="174" y="-156"/>
      <point x="261" y="-240"/>
      <point x="381" y="-240" type="curve"/>
      <point x="420" y="-240"/>
      <point x="446" y="-235"/>
      <point x="473" y="-225" type="curve"/>
      <point x="466" y="-179" type="line"/>
      <point x="461" y="-180"/>
      <point x="451" y="-182"/>
      <point x="437" y="-182" type="curve" smooth="yes"/>
      <point x="379" y="-182"/>
      <point x="334" y="-137"/>
    </contour>
    <component base="o.sc"/>
  </outline>
</glyph>
<glyph name="uniA7B8" format="2">
  <advance width="747"/>
  <unicode hex="A7B8"/>
  <anchor x="394" y="0" name="bottom"/>
  <anchor x="401" y="714" name="top"/>
  <anchor x="822" y="714" name="topright"/>
  <outline>
    <contour>
      <point x="31" y="-11" type="line"/>
      <point x="102" y="-11" type="line"/>
      <point x="815" y="726" type="line"/>
      <point x="745" y="726" type="line"/>
    </contour>
    <component base="U"/>
  </outline>
</glyph>
<glyph name="uniA7B9" format="2">
  <advance width="667"/>
  <unicode hex="A7B9"/>
  <anchor x="280" y="0" name="bottom"/>
  <anchor x="394" y="536" name="top"/>
  <anchor x="710" y="536" name="topright"/>
  <outline>
    <contour>
      <point x="4" y="-11" type="line"/>
      <point x="75" y="-11" type="line"/>
      <point x="702" y="581" type="line"/>
      <point x="632" y="581" type="line"/>
    </contour>
    <component base="u"/>
  </outline>
</glyph>
<glyph name="uniA7C7" format="2">
  <advance width="768"/>
  <unicode hex="A7C7"/>
  <anchor x="327" y="0" name="bottom"/>
  <anchor x="422" y="357" name="center"/>
  <anchor x="479" y="714" name="top"/>
  <anchor x="843" y="714" name="topright"/>
  <outline>
    <contour>
      <point x="177" y="340" type="line"/>
      <point x="708" y="340" type="line"/>
      <point x="708" y="393" type="line"/>
      <point x="177" y="393" type="line"/>
    </contour>
    <component base="D"/>
  </outline>
</glyph>
<glyph name="uniA7C8" format="2">
  <advance width="665"/>
  <unicode hex="A7C8"/>
  <anchor x="276" y="0" name="bottom"/>
  <anchor x="390" y="268" name="center"/>
  <anchor x="438" y="760" name="top"/>
  <anchor x="710" y="760" name="topright"/>
  <outline>
    <contour>
      <point x="84" y="247" type="line"/>
      <point x="495" y="247" type="line"/>
      <point x="495" y="300" type="line"/>
      <point x="84" y="300" type="line"/>
    </contour>
    <component base="d"/>
  </outline>
</glyph>
<glyph name="uniA7C9" format="2">
  <advance width="586"/>
  <unicode hex="A7C9"/>
  <anchor x="236" y="0" name="bottom"/>
  <anchor x="388" y="714" name="top"/>
  <anchor x="661" y="714" name="topright"/>
  <outline>
    <contour>
      <point x="55" y="340" type="line"/>
      <point x="568" y="340" type="line"/>
      <point x="580" y="393" type="line"/>
      <point x="67" y="393" type="line"/>
    </contour>
    <component base="S"/>
  </outline>
</glyph>
<glyph name="uniA7CA" format="2">
  <advance width="514"/>
  <unicode hex="A7CA"/>
  <anchor x="200" y="0" name="bottom"/>
  <anchor x="314" y="536" name="top"/>
  <anchor x="551" y="536" name="topright"/>
  <outline>
    <contour>
      <point x="47" y="257" type="line"/>
      <point x="472" y="257" type="line"/>
      <point x="484" y="310" type="line"/>
      <point x="59" y="310" type="line"/>
    </contour>
    <component base="s"/>
  </outline>
</glyph>
<glyph name="uniA7F7" format="2">
  <advance width="835"/>
  <unicode hex="A7F7"/>
  <outline>
    <contour>
      <point x="90" y="199" type="line"/>
      <point x="143" y="199" type="line"/>
      <point x="143" y="241" type="line" smooth="yes"/>
      <point x="143" y="270"/>
      <point x="151" y="292"/>
      <point x="208" y="292" type="curve" smooth="yes"/>
      <point x="686" y="292" type="line" smooth="yes"/>
      <point x="743" y="292"/>
      <point x="751" y="270"/>
      <point x="751" y="241" type="curve" smooth="yes"/>
      <point x="751" y="199" type="line"/>
      <point x="804" y="199" type="line"/>
      <point x="804" y="544" type="line"/>
      <point x="751" y="544" type="line"/>
      <point x="751" y="502" type="line" smooth="yes"/>
      <point x="751" y="473"/>
      <point x="743" y="451"/>
      <point x="686" y="451" type="curve" smooth="yes"/>
      <point x="208" y="451" type="line" smooth="yes"/>
      <point x="151" y="451"/>
      <point x="143" y="473"/>
      <point x="143" y="502" type="curve" smooth="yes"/>
      <point x="143" y="544" type="line"/>
      <point x="90" y="544" type="line"/>
    </contour>
  </outline>
</glyph>
<glyph name="uniA7FF" format="2">
  <advance width="1048"/>
  <unicode hex="A7FF"/>
  <outline>
    <contour>
      <point x="97" y="-20" type="curve" smooth="yes"/>
      <point x="134" y="-20"/>
      <point x="167" y="0"/>
      <point x="171" y="51" type="curve"/>
      <point x="146" y="57"/>
      <point x="121" y="79"/>
      <point x="121" y="119" type="curve" smooth="yes"/>
      <point x="121" y="185"/>
      <point x="162" y="278"/>
      <point x="281" y="418" type="curve"/>
      <point x="288" y="418" type="line"/>
      <point x="295" y="-6" type="line"/>
      <point x="426" y="3" type="line"/>
      <point x="514" y="134"/>
      <point x="580" y="271"/>
      <point x="632" y="394" type="curve"/>
      <point x="637" y="311"/>
      <point x="641" y="113"/>
      <point x="641" y="-10" type="curve"/>
      <point x="763" y="1" type="line"/>
      <point x="897" y="147"/>
      <point x="1025" y="323"/>
      <point x="1025" y="461" type="curve" smooth="yes"/>
      <point x="1025" y="515"/>
      <point x="999" y="546"/>
      <point x="955" y="546" type="curve" smooth="yes"/>
      <point x="918" y="546"/>
      <point x="885" y="526"/>
      <point x="881" y="475" type="curve"/>
      <point x="906" y="469"/>
      <point x="931" y="447"/>
      <point x="931" y="407" type="curve" smooth="yes"/>
      <point x="931" y="341"/>
      <point x="899" y="254"/>
      <point x="782" y="110" type="curve"/>
      <point x="775" y="110" type="line"/>
      <point x="775" y="178"/>
      <point x="763" y="431"/>
      <point x="752" y="531" type="curve"/>
      <point x="630" y="527" type="line"/>
      <point x="573" y="380"/>
      <point x="504" y="230"/>
      <point x="438" y="125" type="curve"/>
      <point x="431" y="125" type="line"/>
      <point x="419" y="536" type="line"/>
      <point x="297" y="525" type="line"/>
      <point x="162" y="384"/>
      <point x="27" y="203"/>
      <point x="27" y="65" type="curve" smooth="yes"/>
      <point x="27" y="11"/>
      <point x="53" y="-20"/>
    </contour>
  </outline>
</glyph>
<glyph name="uniAB30" format="2">
  <advance width="659"/>
  <unicode hex="AB30"/>
  <anchor x="273" y="0" name="bottom"/>
  <anchor x="387" y="536" name="top"/>
  <outline>
    <contour>
      <point x="-31" y="257" type="line"/>
      <point x="627" y="257" type="line"/>
      <point x="638" y="311" type="line"/>
      <point x="-20" y="311" type="line"/>
    </contour>
    <component base="uni0251"/>
  </outline>
</glyph>
<glyph name="uniAB35" format="2">
  <advance width="404"/>
  <unicode hex="AB35"/>
  <outline>
    <contour>
      <point x="58" y="53" type="line"/>
      <point x="210" y="53" type="line"/>
      <point x="298" y="468" type="line"/>
      <point x="425" y="468" type="line"/>
      <point x="439" y="536" type="line"/>
      <point x="313" y="536" type="line"/>
      <point x="326" y="600" type="line" smooth="yes"/>
      <point x="340" y="675"/>
      <point x="360" y="711"/>
      <point x="402" y="711" type="curve" smooth="yes"/>
      <point x="438" y="711"/>
      <point x="448" y="664"/>
      <point x="448" y="613" type="curve"/>
      <point x="523" y="613"/>
      <point x="563" y="639"/>
      <point x="563" y="683" type="curve" smooth="yes"/>
      <point x="563" y="732"/>
      <point x="509" y="770"/>
      <point x="406" y="770" type="curve" smooth="yes"/>
      <point x="271" y="770"/>
      <point x="200" y="705"/>
      <point x="169" y="573" type="curve" smooth="yes"/>
      <point x="161" y="536" type="line"/>
      <point x="65" y="515" type="line"/>
      <point x="55" y="468" type="line"/>
      <point x="146" y="468" type="line"/>
    </contour>
  </outline>
</glyph>
<glyph name="uniAB3F" format="2">
  <advance width="549"/>
  <unicode hex="AB3F"/>
  <anchor x="322" y="536" name="bottom"/>
  <anchor x="198" y="0" name="top"/>
  <anchor x="-16" y="0" name="topright"/>
  <outline>
    <contour>
      <point x="53" y="-55" type="line"/>
      <point x="119" y="-55" type="line"/>
      <point x="490" y="586" type="line"/>
      <point x="424" y="586" type="line"/>
    </contour>
    <component base="c" xScale="-1" yScale="-1" xOffset="549" yOffset="536"/>
  </outline>
</glyph>
<glyph name="uniAB42" format="2">
  <advance width="923"/>
  <unicode hex="AB42"/>
  <anchor x="529" y="536" name="bottom"/>
  <anchor x="415" y="0" name="top"/>
  <outline>
    <contour>
      <point x="425" y="254" type="line"/>
      <point x="780" y="254" type="line"/>
      <point x="780" y="311" type="line"/>
      <point x="425" y="311" type="line"/>
    </contour>
    <component base="oe" xScale="-1" yScale="-1" xOffset="923" yOffset="536"/>
  </outline>
</glyph>
<glyph name="uniAB60" format="2">
  <advance width="885"/>
  <unicode hex="AB60"/>
  <outline>
    <contour>
      <point x="610" y="-10" type="curve" smooth="yes"/>
      <point x="739" y="-10"/>
      <point x="845" y="51"/>
      <point x="845" y="168" type="curve" smooth="yes"/>
      <point x="845" y="265"/>
      <point x="787" y="314"/>
      <point x="654" y="314" type="curve" smooth="yes"/>
      <point x="635" y="314"/>
      <point x="600" y="312"/>
      <point x="562" y="309" type="curve"/>
      <point x="611" y="536" type="line"/>
      <point x="378" y="536" type="line"/>
      <point x="367" y="483" type="line"/>
      <point x="385" y="483" type="line" smooth="yes"/>
      <point x="426" y="483"/>
      <point x="439" y="472"/>
      <point x="439" y="448" type="curve" smooth="yes"/>
      <point x="439" y="440"/>
      <point x="437" y="431"/>
      <point x="435" y="421" type="curve" smooth="yes"/>
      <point x="395" y="230" type="line"/>
      <point x="389" y="204"/>
      <point x="384" y="169"/>
      <point x="384" y="142" type="curve" smooth="yes"/>
      <point x="384" y="40"/>
      <point x="461" y="-10"/>
    </contour>
    <contour>
      <point x="185" y="-10" type="curve" smooth="yes"/>
      <point x="258" y="-10"/>
      <point x="306" y="25"/>
      <point x="338" y="59" type="curve"/>
      <point x="314" y="93" type="line"/>
      <point x="291" y="78"/>
      <point x="276" y="70"/>
      <point x="255" y="70" type="curve" smooth="yes"/>
      <point x="233" y="70"/>
      <point x="220" y="86"/>
      <point x="220" y="115" type="curve" smooth="yes"/>
      <point x="220" y="143"/>
      <point x="226" y="175"/>
      <point x="234" y="211" type="curve" smooth="yes"/>
      <point x="303" y="536" type="line"/>
      <point x="66" y="536" type="line"/>
      <point x="57" y="483" type="line"/>
      <point x="75" y="483" type="line" smooth="yes"/>
      <point x="116" y="483"/>
      <point x="128" y="469"/>
      <point x="128" y="444" type="curve" smooth="yes"/>
      <point x="128" y="431"/>
      <point x="125" y="416"/>
      <point x="121" y="398" type="curve" smooth="yes"/>
      <point x="82" y="212" type="line" smooth="yes"/>
      <point x="71" y="161"/>
      <point x="66" y="121"/>
      <point x="66" y="93" type="curve" smooth="yes"/>
      <point x="66" y="29"/>
      <point x="109" y="-10"/>
    </contour>
    <contour>
      <point x="607" y="58" type="curve" smooth="yes"/>
      <point x="555" y="58"/>
      <point x="535" y="89"/>
      <point x="535" y="143" type="curve" smooth="yes"/>
      <point x="535" y="171"/>
      <point x="543" y="217"/>
      <point x="549" y="248" type="curve"/>
      <point x="563" y="249"/>
      <point x="582" y="252"/>
      <point x="615" y="252" type="curve" smooth="yes"/>
      <point x="663" y="252"/>
      <point x="689" y="224"/>
      <point x="689" y="164" type="curve" smooth="yes"/>
      <point x="689" y="103"/>
      <point x="663" y="58"/>
    </contour>
  </outline>
</glyph>
<glyph name="uniFE20" format="2">
  <unicode hex="FE20"/>
  <anchor x="54" y="536" name="_top"/>
  <outline>
    <contour>
      <point x="-296" y="593" type="curve"/>
      <point x="-230" y="593" type="line"/>
      <point x="-155" y="684"/>
      <point x="-64" y="714"/>
      <point x="92" y="714" type="curve"/>
      <point x="92" y="796" type="line"/>
      <point x="-97" y="796"/>
      <point x="-229" y="732"/>
    </contour>
  </outline>
</glyph>
<glyph name="uniFE21" format="2">
  <unicode hex="FE21"/>
  <anchor x="33" y="536" name="_top"/>
  <outline>
    <contour>
      <point x="410" y="593" type="curve"/>
      <point x="476" y="593" type="line"/>
      <point x="410" y="730"/>
      <point x="275" y="796"/>
      <point x="100" y="796" type="curve" smooth="yes"/>
      <point x="88" y="796" type="line"/>
      <point x="88" y="714" type="line"/>
      <point x="95" y="714" type="line"/>
      <point x="247" y="713"/>
      <point x="336" y="683"/>
    </contour>
  </outline>
</glyph>
<glyph name="uniFE22" format="2">
  <unicode hex="FE22"/>
  <anchor x="74" y="536" name="_top"/>
  <outline>
    <contour>
      <point x="-294" y="593" type="curve"/>
      <point x="-234" y="593" type="line"/>
      <point x="-210" y="645"/>
      <point x="-171" y="665"/>
      <point x="-105" y="665" type="curve" smooth="yes"/>
      <point x="-28" y="665"/>
      <point x="22" y="644"/>
      <point x="93" y="626" type="curve"/>
      <point x="93" y="708" type="line"/>
      <point x="33" y="723"/>
      <point x="-36" y="738"/>
      <point x="-106" y="738" type="curve" smooth="yes"/>
      <point x="-225" y="738"/>
      <point x="-274" y="669"/>
    </contour>
  </outline>
</glyph>
<glyph name="uniFE23" format="2">
  <unicode hex="FE23"/>
  <anchor x="50" y="536" name="_top"/>
  <outline>
    <contour>
      <point x="286" y="597" type="curve" smooth="yes"/>
      <point x="405" y="597"/>
      <point x="454" y="666"/>
      <point x="474" y="742" type="curve"/>
      <point x="414" y="742" type="line"/>
      <point x="390" y="690"/>
      <point x="351" y="670"/>
      <point x="285" y="670" type="curve" smooth="yes"/>
      <point x="208" y="670"/>
      <point x="158" y="686"/>
      <point x="87" y="709" type="curve"/>
      <point x="87" y="627" type="line"/>
      <point x="147" y="612"/>
      <point x="216" y="597"/>
    </contour>
  </outline>
</glyph>
<glyph name="combiningconjoiningmacron" format="2">
  <unicode hex="FE26"/>
  <anchor x="56" y="536" name="_top"/>
  <outline>
    <contour>
      <point x="-297" y="674" type="line"/>
      <point x="468" y="674" type="line"/>
      <point x="483" y="745" type="line"/>
      <point x="-282" y="745" type="line"/>
    </contour>
  </outline>
</glyph>
<glyph name="uniFE27" format="2">
  <unicode hex="FE27"/>
  <anchor x="-57" y="0" name="_bottom"/>
  <outline>
    <contour>
      <point x="-102" y="-213" type="curve"/>
      <point x="-87" y="-141" type="line"/>
      <point x="-251" y="-141"/>
      <point x="-356" y="-104"/>
      <point x="-396" y="-26" type="curve"/>
      <point x="-456" y="-26" type="line"/>
      <point x="-408" y="-161"/>
      <point x="-291" y="-213"/>
    </contour>
  </outline>
</glyph>
<glyph name="uniFE28" format="2">
  <unicode hex="FE28"/>
  <anchor x="-57" y="0" name="_bottom"/>
  <outline>
    <contour>
      <point x="-102" y="-213" type="line"/>
      <point x="86" y="-213"/>
      <point x="225" y="-161"/>
      <point x="329" y="-26" type="curve"/>
      <point x="269" y="-26" type="line"/>
      <point x="197" y="-104"/>
      <point x="76" y="-141"/>
      <point x="-87" y="-141" type="curve"/>
    </contour>
  </outline>
</glyph>
<glyph name="uniFE29" format="2">
  <unicode hex="FE29"/>
  <anchor x="-57" y="0" name="_bottom"/>
  <outline>
    <contour>
      <point x="-498" y="-202" type="curve"/>
      <point x="-442" y="-202" type="line"/>
      <point x="-407" y="-156"/>
      <point x="-357" y="-133"/>
      <point x="-302" y="-133" type="curve" smooth="yes"/>
      <point x="-253" y="-133"/>
      <point x="-192" y="-146"/>
      <point x="-94" y="-172" type="curve"/>
      <point x="-78" y="-92" type="line"/>
      <point x="-149" y="-71"/>
      <point x="-219" y="-61"/>
      <point x="-284" y="-61" type="curve" smooth="yes"/>
      <point x="-380" y="-61"/>
      <point x="-457" y="-113"/>
    </contour>
  </outline>
</glyph>
<glyph name="uniFE2D" format="2">
  <unicode hex="FE2D"/>
  <anchor x="-58" y="0" name="_bottom"/>
  <outline>
    <contour>
      <point x="-484" y="-207" type="line"/>
      <point x="282" y="-207" type="line"/>
      <point x="297" y="-136" type="line"/>
      <point x="-469" y="-136" type="line"/>
    </contour>
  </outline>
</glyph>
<glyph name="uniFE2E" format="2">
  <unicode hex="FE2E"/>
  <anchor x="-22" y="536" name="_top"/>
  <outline>
    <contour>
      <point x="-10" y="568" type="curve" smooth="yes"/>
      <point x="22" y="568"/>
      <point x="37" y="588"/>
      <point x="41" y="616" type="curve"/>
      <point x="213" y="616" type="line"/>
      <point x="213" y="679" type="line"/>
      <point x="-9" y="679" type="line" smooth="yes"/>
      <point x="-46" y="679"/>
      <point x="-61" y="658"/>
      <point x="-61" y="622" type="curve" smooth="yes"/>
      <point x="-61" y="586"/>
      <point x="-46" y="568"/>
    </contour>
  </outline>
</glyph>
<glyph name="uniFE2F" format="2">
  <unicode hex="FE2F"/>
  <anchor x="139" y="536" name="_top"/>
  <outline>
    <contour>
      <point x="-51" y="616" type="line"/>
      <point x="170" y="616" type="line" smooth="yes"/>
      <point x="207" y="616"/>
      <point x="222" y="637"/>
      <point x="222" y="673" type="curve" smooth="yes"/>
      <point x="222" y="709"/>
      <point x="207" y="727"/>
      <point x="171" y="727" type="curve" smooth="yes"/>
      <point x="140" y="727"/>
      <point x="125" y="707"/>
      <point x="121" y="679" type="curve"/>
      <point x="-51" y="679" type="line"/>
    </contour>
  </outline>
</glyph>
<glyph name="afii10084.loclSRB" format="2">
  <advance width="972"/>
  <anchor x="501" y="536" name="_top"/>
  <anchor x="526" y="685" name="top"/>
  <anchor x="429" y="0" name="bottom"/>
  <outline>
    <contour>
      <point x="220" y="606" type="line"/>
      <point x="810" y="606" type="line"/>
      <point x="827" y="685" type="line"/>
      <point x="237" y="685" type="line"/>
    </contour>
    <component base="afii10090"/>
  </outline>
</glyph>
<glyph name="carondot" format="2">
  <advance width="577"/>
  <outline>
    <contour>
      <point x="376" y="751" type="curve" smooth="yes"/>
      <point x="405" y="751"/>
      <point x="436" y="769"/>
      <point x="436" y="821" type="curve" smooth="yes"/>
      <point x="436" y="858"/>
      <point x="413" y="876"/>
      <point x="381" y="876" type="curve" smooth="yes"/>
      <point x="344" y="876"/>
      <point x="321" y="848"/>
      <point x="321" y="806" type="curve" smooth="yes"/>
      <point x="321" y="769"/>
      <point x="343" y="751"/>
    </contour>
    <component base="caron" xOffset="63"/>
  </outline>
</glyph>
<glyph name="hbar.sc" format="2">
  <advance width="696"/>
  <anchor x="307" y="0" name="bottom"/>
  <anchor x="433" y="571" name="top"/>
  <anchor x="368" y="286" name="center"/>
  <anchor x="767" y="571" name="topright"/>
  <outline>
    <contour>
      <point x="55" y="398" type="line"/>
      <point x="736" y="398" type="line"/>
      <point x="746" y="443" type="line"/>
      <point x="65" y="443" type="line"/>
    </contour>
    <component base="h.sc"/>
  </outline>
</glyph>
<glyph name="lslash.sc" format="2">
  <advance width="560"/>
  <anchor x="225" y="0" name="bottom"/>
  <anchor x="347" y="571" name="top"/>
  <anchor x="280" y="286" name="center"/>
  <anchor x="601" y="571" name="topright"/>
  <outline>
    <contour>
      <point x="33" y="183" type="line"/>
      <point x="411" y="370" type="line"/>
      <point x="426" y="438" type="line"/>
      <point x="48" y="249" type="line"/>
    </contour>
    <component base="l.sc"/>
  </outline>
</glyph>
<glyph name="tbar.sc" format="2">
  <advance width="563"/>
  <anchor x="231" y="0" name="bottom"/>
  <anchor x="363" y="571" name="top"/>
  <anchor x="302" y="286" name="center"/>
  <anchor x="634" y="571" name="topright"/>
  <outline>
    <contour>
      <point x="108" y="264" type="line"/>
      <point x="486" y="264" type="line"/>
      <point x="497" y="309" type="line"/>
      <point x="118" y="309" type="line"/>
    </contour>
    <component base="t.sc"/>
  </outline>
</glyph>
<glyph name="uni0268dotless" format="2">
  <advance width="354"/>
  <anchor x="120" y="0" name="bottom"/>
  <anchor x="234" y="536" name="top"/>
  <outline>
    <contour>
      <point x="0" y="259" type="line"/>
      <point x="342" y="259" type="line"/>
      <point x="355" y="317" type="line"/>
      <point x="13" y="317" type="line"/>
    </contour>
    <component base="idotless"/>
  </outline>
</glyph>
<glyph name="zero.slash" format="2">
  <advance width="559"/>
  <outline>
    <contour>
      <point x="161" y="156" type="line"/>
      <point x="491" y="515" type="line"/>
      <point x="457" y="567" type="line"/>
      <point x="127" y="208" type="line"/>
    </contour>
    <component base="zero"/>
  </outline>
</glyph>
